<?xml version="1.0" encoding="UTF-8" standalone="no"?>
<!-- Generator: Adobe Illustrator 19.0.0, SVG Export Plug-In . SVG Version: 6.00 Build 0)  -->

<svg
   xmlns:dc="http://purl.org/dc/elements/1.1/"
   xmlns:cc="http://creativecommons.org/ns#"
   xmlns:rdf="http://www.w3.org/1999/02/22-rdf-syntax-ns#"
   xmlns:svg="http://www.w3.org/2000/svg"
   xmlns="http://www.w3.org/2000/svg"
   xmlns:sodipodi="http://sodipodi.sourceforge.net/DTD/sodipodi-0.dtd"
   xmlns:inkscape="http://www.inkscape.org/namespaces/inkscape"
   version="1.1"
   id="Layer_1"
   x="0px"
   y="0px"
   viewBox="0 0 700 699.99998"
   xml:space="preserve"
   sodipodi:docname="youtube-logo.svg"
   width="700"
   height="700"
   inkscape:version="0.92.4 (5da689c313, 2019-01-14)"
   inkscape:export-filename="G:\Users\suitedoalex\sites\youtube-logo-0.png"
   inkscape:export-xdpi="561.73999"
   inkscape:export-ydpi="561.73999"><metadata
   id="metadata33"><rdf:RDF><cc:Work
       rdf:about=""><dc:format>image/svg+xml</dc:format><dc:type
         rdf:resource="http://purl.org/dc/dcmitype/StillImage" /><dc:title></dc:title></cc:Work></rdf:RDF></metadata><defs
   id="defs31" /><sodipodi:namedview
   pagecolor="#ffffff"
   bordercolor="#666666"
   borderopacity="1"
   objecttolerance="10"
   gridtolerance="10"
   guidetolerance="10"
   inkscape:pageopacity="0"
   inkscape:pageshadow="2"
   inkscape:window-width="1600"
   inkscape:window-height="837"
   id="namedview29"
   showgrid="false"
   inkscape:zoom="0.30363636"
   inkscape:cx="349.11993"
   inkscape:cy="646.66825"
   inkscape:window-x="-8"
   inkscape:window-y="-8"
   inkscape:window-maximized="1"
   inkscape:current-layer="Layer_1" />
<style
   type="text/css"
   id="style2">
	.st0{fill:#FF0000;}
	.st1{fill:#FFFFFF;}
	.st2{fill:#282828;}
</style>
<g
   id="g8"
   transform="matrix(1.4297896,0,0,1.4297896,-43.263629,167.70183)"
   inkscape:export-filename="G:\Users\suitedoalex\sites\youtube-logo-7.png"
   inkscape:export-xdpi="221.22816"
   inkscape:export-ydpi="221.22816">
	<path
   class="st0"
   d="M 203.5,98.3 C 202.1,93.1 198,89 192.8,87.6 c -9.5,-2.5 -47.5,-2.5 -47.5,-2.5 0,0 -38,0 -47.5,2.5 -5.2,1.4 -9.3,5.5 -10.7,10.7 -2.5,9.5 -2.5,29.2 -2.5,29.2 0,0 0,19.8 2.5,29.2 1.4,5.2 5.5,9.3 10.7,10.7 9.5,2.5 47.5,2.5 47.5,2.5 0,0 38,0 47.5,-2.5 5.2,-1.4 9.3,-5.5 10.7,-10.7 2.5,-9.5 2.5,-29.2 2.5,-29.2 0,0 0,-19.7 -2.5,-29.2 z"
   id="path4"
   inkscape:connector-curvature="0"
   style="fill:#ff0000" />
	<polygon
   class="st1"
   points="164.7,127.6 133.1,109.3 133.1,145.8 "
   id="polygon6"
   style="fill:#ffffff" />
</g>
<g
   id="g26"
   transform="matrix(1.4297896,0,0,1.4297896,-43.263629,167.70183)"
   inkscape:export-filename="G:\Users\suitedoalex\sites\youtube-logo-4.png"
   inkscape:export-xdpi="70.509583"
   inkscape:export-ydpi="70.509583">
	<g
   id="g24">
		<path
   class="st2"
   d="m 260.9,162.4 c -2.4,-1.6 -4.1,-4.1 -5.1,-7.6 -1,-3.4 -1.5,-8 -1.5,-13.6 v -7.7 c 0,-5.7 0.6,-10.3 1.7,-13.8 1.2,-3.5 3,-6 5.4,-7.6 2.5,-1.6 5.7,-2.4 9.7,-2.4 3.9,0 7.1,0.8 9.5,2.4 2.4,1.6 4.1,4.2 5.2,7.6 1.1,3.4 1.7,8 1.7,13.8 v 7.7 c 0,5.7 -0.5,10.2 -1.6,13.7 -1.1,3.4 -2.8,6 -5.2,7.6 -2.4,1.6 -5.7,2.4 -9.8,2.4 -4.3,-0.1 -7.6,-0.9 -10,-2.5 z m 13.5,-8.3 c 0.7,-1.7 1,-4.6 1,-8.5 V 129 c 0,-3.8 -0.3,-6.6 -1,-8.4 -0.7,-1.8 -1.8,-2.6 -3.5,-2.6 -1.6,0 -2.8,0.9 -3.4,2.6 -0.7,1.8 -1,4.6 -1,8.4 v 16.6 c 0,3.9 0.3,6.8 1,8.5 0.6,1.7 1.8,2.6 3.5,2.6 1.5,0 2.7,-0.9 3.4,-2.6 z"
   id="path10"
   inkscape:connector-curvature="0"
   style="fill:#282828" />
		<path
   class="st2"
   d="m 445.4,141.3 v 2.7 c 0,3.4 0.1,6 0.3,7.7 0.2,1.7 0.6,3 1.3,3.7 0.6,0.8 1.6,1.2 3,1.2 1.8,0 3,-0.7 3.7,-2.1 0.7,-1.4 1,-3.7 1.1,-7 l 10.3,0.6 c 0.1,0.5 0.1,1.1 0.1,1.9 0,4.9 -1.3,8.6 -4,11 -2.7,2.4 -6.5,3.6 -11.4,3.6 -5.9,0 -10,-1.9 -12.4,-5.6 -2.4,-3.7 -3.6,-9.4 -3.6,-17.2 v -9.3 c 0,-8 1.2,-13.8 3.7,-17.5 2.5,-3.7 6.7,-5.5 12.6,-5.5 4.1,0 7.3,0.8 9.5,2.3 2.2,1.5 3.7,3.9 4.6,7 0.9,3.2 1.3,7.6 1.3,13.2 v 9.1 h -20.1 z m 1.5,-22.4 c -0.6,0.8 -1,2 -1.2,3.7 -0.2,1.7 -0.3,4.3 -0.3,7.8 v 3.8 h 8.8 v -3.8 c 0,-3.4 -0.1,-6 -0.3,-7.8 -0.2,-1.8 -0.7,-3 -1.3,-3.7 -0.6,-0.7 -1.6,-1.1 -2.8,-1.1 -1.3,0 -2.3,0.4 -2.9,1.1 z"
   id="path12"
   inkscape:connector-curvature="0"
   style="fill:#282828" />
		<path
   class="st2"
   d="M 231.7,140.3 218.1,91 H 230 l 4.8,22.3 c 1.2,5.5 2.1,10.2 2.7,14.1 h 0.3 c 0.4,-2.8 1.3,-7.4 2.7,-14 l 5,-22.4 h 11.9 l -13.8,49.3 V 164 h -11.8 v -23.7 z"
   id="path14"
   inkscape:connector-curvature="0"
   style="fill:#282828" />
		<path
   class="st2"
   d="M 326.1,110.7 V 164 h -9.4 l -1,-6.5 h -0.3 c -2.5,4.9 -6.4,7.4 -11.5,7.4 -3.5,0 -6.1,-1.2 -7.8,-3.5 -1.7,-2.3 -2.5,-5.9 -2.5,-10.9 v -39.8 h 12 v 39.1 c 0,2.4 0.3,4.1 0.8,5.1 0.5,1 1.4,1.5 2.6,1.5 1,0 2,-0.3 3,-1 1,-0.6 1.7,-1.4 2.1,-2.4 v -42.3 z"
   id="path16"
   inkscape:connector-curvature="0"
   style="fill:#282828" />
		<path
   class="st2"
   d="M 387.6,110.7 V 164 h -9.4 l -1,-6.5 h -0.3 c -2.5,4.9 -6.4,7.4 -11.5,7.4 -3.5,0 -6.1,-1.2 -7.8,-3.5 -1.7,-2.3 -2.5,-5.9 -2.5,-10.9 v -39.8 h 12 v 39.1 c 0,2.4 0.3,4.1 0.8,5.1 0.5,1 1.4,1.5 2.6,1.5 1,0 2,-0.3 3,-1 1,-0.6 1.7,-1.4 2.1,-2.4 v -42.3 z"
   id="path18"
   inkscape:connector-curvature="0"
   style="fill:#282828" />
		<path
   class="st2"
   d="M 358.7,100.7 H 346.8 V 164 h -11.7 v -63.2 h -11.9 v -9.6 h 35.5 z"
   id="path20"
   inkscape:connector-curvature="0"
   style="fill:#282828" />
		<path
   class="st2"
   d="m 427.3,119.2 c -0.7,-3.4 -1.9,-5.8 -3.5,-7.3 -1.6,-1.5 -3.9,-2.3 -6.7,-2.3 -2.2,0 -4.3,0.6 -6.2,1.9 -1.9,1.2 -3.4,2.9 -4.4,4.9 h -0.1 V 88.3 H 394.8 V 164 h 9.9 l 1.2,-5 h 0.3 c 0.9,1.8 2.3,3.2 4.2,4.3 1.9,1 3.9,1.6 6.2,1.6 4.1,0 7,-1.9 8.9,-5.6 1.9,-3.7 2.9,-9.6 2.9,-17.5 v -8.4 c 0,-6.2 -0.4,-10.8 -1.1,-14.2 z m -11,21.7 c 0,3.9 -0.2,6.9 -0.5,9.1 -0.3,2.2 -0.9,3.8 -1.6,4.7 -0.8,0.9 -1.8,1.4 -3,1.4 -1,0 -1.9,-0.2 -2.7,-0.7 -0.8,-0.5 -1.5,-1.2 -2,-2.1 v -30.2 c 0.4,-1.4 1.1,-2.6 2.1,-3.6 1,-0.9 2.1,-1.4 3.2,-1.4 1.2,0 2.2,0.5 2.8,1.4 0.7,1 1.1,2.6 1.4,4.8 0.3,2.3 0.4,5.5 0.4,9.6 v 7 z"
   id="path22"
   inkscape:connector-curvature="0"
   style="fill:#282828" />
	</g>
</g>
</svg>